<svg xmlns="http://www.w3.org/2000/svg" viewBox="17820.912 2810.501 679.338 1076.738">
  <defs>
    <style>
      .cls-1 {
        fill: #540103;
      }
    </style>
  </defs>
  <path id="Union_24" data-name="Union 24" class="cls-1" d="M-16155.6-1733.262c21.063-25.87,41.174-52.65,59.934-80.739v80.739Zm-32.16,0c16.271-23.273,30.051-48.958,45.9-72.614,6.416-.863.657-6.264-4.155-7.763-14.71,29.92-37.183,52.566-54.232,80.377h-21.483c8.188-15.531,13.463-32.286,17.471-41.906-12.512,13.333-24.939,26.712-35.473,41.906h-61.6a6.2,6.2,0,0,0-2.724-3.524c-.736.8-1.772,2.05-3,3.524h-27.349c4.392-5.191,8.884-10.276,13.632-15.068-8.1,3.292-8.045-.964-8.016-5.216.025-3.49.042-6.98-4.454-6.3-5.826,5.107-14.078,27.685-20.768,19.16,28.468-52.945,99.565-87.26,120.666-134.235-52.229,35.052-83.143,89.559-137.333,122.775.947,7.09,1.751,13.274,2.445,18.886h-33.827c.8-1.179,1.563-2.362,2.324-3.524-2.26,1.1-4.5,2.282-6.672,3.524h-28.869c8-5.991,15.725-12.3,23.045-18.886-20.3-4.576-35.939,5.507-49.02,18.886h-9.266c13.146-13.379,26-27.053,41.7-38.13-22.746,1.857-44.865,17.871-61.686,38.13h-9.219c-1.982-5.675,4.813-19.6-4.092-18.886-4.965,5.086-14.5,11.67-20.873,18.886h-19.729c13.354-15.257,22.451-31.124,19.834-41.906-14.139,14.579-31.041,26.754-44.568,41.906h-18.211a202.193,202.193,0,0,0,21.162-30.514c-14.92,10.512-30.346,20.322-45.471,30.514h-27.457c55.793-32.328,111.93-64.3,172.789-91.794-5.953-.867-7.047-6.332-12.516-7.662-64.762,28.131-125.811,60-178.424,99.456h-55.605c52.949-38.34,106.314-76.474,163.271-111-52.9,8.651-80.334,39.692-120.619,65.183-22.941,14.562-46.449,29.377-61.158,45.813h-42.584c35.6-41.169,89.979-65.1,124.506-107.219-40.9,27.832-95.955,53.833-125.543,92.556v-80.907c20.391-13.3,46.576-24.27,71.52-38.407-27.432,3.882-50.92,14.752-71.52,29.945v-67.549c80.213,17.24,171.971,29.92,254.607,29.92,25.34,0,72.445,1.92,87.408-19.16-118.832-6.5-236.27-11.27-342.016-35.663v-170.171c20.475-53.454,36.531-110.958,92.283-131.936-16.035.467-19.244,13.106-37.393,11.544-12.428-23.993-2.893-39.081,0-65.187-17.555.362-11.4,22.73-24.924,26.8-11.518,2.892-8.42-7.679-16.691-7.679q-6.738,7.565-13.275,15.3v-31.276a48.208,48.208,0,0,1,4.98-3.145,90.275,90.275,0,0,0-4.98-14.053v-136.2c27.375-22.157,59.029-40.306,104.779-45.413,5.018-14.284,49.672-29.688,33.279-38.407-42.205,5.637-89.689,8.125-138.059,7.641v-17.749c69.406-4.66,138.564-14.221,196.32-20.616-60.229-13.169-128.178-9.2-196.32-4.77v-18.718c38.557-4.029,76.838-6.669,113.094-3.292,27.684,2.45,47.67,17.219,74.912,7.557-41.51-17.029-90.953-20.915-141.408-23.024a379.36,379.36,0,0,0-46.6,1.225v-8.778c.279-.021.527-.067.783-.084a9.6,9.6,0,0,0-.783-.615v-21.9c41.807,6.479,80.424,11.459,109-4.323-30.367-13.973-70.379-13.527-109-15.493v-10.7c32.8,3.566,67.912-.505,92.283-12.154-2.109-18.654-36.74-27.437-29.057-42.289,24.922,6.159,63.094,5.654,74.832-11.438-4.391-.122-9-.034-13.607.059-18.094.349-36.121.7-40.461-11.624,58.666,3.061,95.6-14.2,129-34.547-23.613-42.373-126.994-64.972-158.1-15.3-2.619-5.3-16.082-.568-16.629-7.658,7.367-9.834,17.219-16.966,28.551-21.841h102.055c29.289,8.5,55.311,22.431,69.111,37.182-2.473-15.089-8.168-27.369-16.461-37.182h6.057c22.811,29.689,59.383,57.041,101.861,67.823,5.59-43.409-52.25-28.552-74.828-45.981a484.494,484.494,0,0,1,74.828,7.658c11.059,10.365,13.758,28.173,20.826,42.163,76.058-24.961,61.748,87.071,41.616,126.6-1.667,4.324-4.96,9.262,0,3.924,61.368-75.253,212.5-42.331,287.461.231v10.891c-56.957-7.536-116.022-57.677-187.6-49.488-57.7,6.626-76.184,38.892-124.867,69.111,4.643,20.747-14.139,20.174-12.514,38.26,73.4,11.438,93.357-43.83,158.081-57.525,69.068-14.562,107.645,6.669,166.9,21.079v1.814c-15.657-.126-31.255-.4-42.016,3.928-64.173-48.01-205.623-14.836-216.325,57.588,56.515.274,91.293,20.679,120.666,46.15,51.64.147,105.114,2.177,120.624-30.809,4.135,5.044,10.024,9.115,17.051,12.218v16.208a89.11,89.11,0,0,1-21.189-9.2q-13.071,10.925-33.359,15.324c-20.81,6.647-75.338-5.89-87.345,19.2,16.373,8.588,40.476-8.736,58.3-11.459,21.988,6.942,51.724,12.811,83.589,16.356v10.929c-1.521-.147-3-.295-4.476-.463-43.236-4.9-118.321-39.759-133.2,15.32,45.918-1.162,90.994,13.126,137.675,16.4v7.51c-15.526.817-36.08-2.917-56.481-6.652-45.286-8.285-89.832-16.575-77.013,24.948,17.387-1.882,34.782-.56,51.534.762,30.83,2.433,59.5,4.871,81.96-12.643v21.441c-4.729,1.583-9.855,3.313-15.384,5.128,20.448-5.78-7.283,11.481-3.755,27.5,9.577-2.614,15.32-9.241,19.139-16.1V-2332a12.094,12.094,0,0,0-4.476,4.239c-.315.467,1.436,1.5,4.476,2.787v9.241c-7.6-7.889-24.292-10.74-33.638-4.281-.994,7.153,4.58,8.42,4.2,15.362,6.163-3.768,11.447-2.7,16.6-1.629,4.231.88,8.374,1.756,12.837-.038v41.952c-4.008,3.439-6.669,8.146-8.757,13.358a45.089,45.089,0,0,0,8.757.021v15c-.147.105-.295.189-.442.316a3.086,3.086,0,0,0,.442-.021v30.893c-14.752.615-31.718-.947-29.437,15.278,9.662-3.776,22.179-4.959,29.437-11.013v23.656c-1.5.863-2.977,1.73-4.476,2.593,1.52.257,3.019.446,4.476.573v18.781a225.836,225.836,0,0,0-29.437-.105c9.347,3.166,19.265,5.78,29.437,8.209v19.837a6.922,6.922,0,0,0-4.476,6.433,28.141,28.141,0,0,1,4.476.126v15.152a20.387,20.387,0,0,0-17.051,3.907c5.4,2.573,11.1,5,17.051,7.216v23.929c-16.146,6.563-19.286,24.881,0,34.1v15.131a41.3,41.3,0,0,0-8.757.253c-3.734,8.82,2.257,12.217,8.757,12.07v57.988c-81.312,51.345-149.261,115.16-212.587,183.151,47.859-32.623,87.323-72.95,129-111.211,29.188-9.687,44.04-32.833,66.538-49.972a166.5,166.5,0,0,1,17.051-10.761v105.367c-22.877,32.77-45.182,66.05-65.9,100.846Zm-286.952-107.219c32.561,26.228,37.668,77.868,83.334,92.152-16.756-40.938-51.3-65.309-66.662-107.367h-12.494C-16471.8-1850.505-16476.48-1848.375-16474.709-1840.481Zm-16.523,84.473c19.623,7.894,25.912-26.253,49.826-26.906-2.709-9.625-7.406-13.386-12.871-13.386C-16468.834-1796.3-16488.838-1769.617-16491.232-1756.008Zm228.669-3.839c29.819-9.919,77.063-53.2,87.449-80.634C-16204.7-1816.425-16259.124-1795.131-16262.563-1759.848Zm-370.226-11.544c34.754-17.833,71.92-33.427,91.584-65.208C-16587.145-1828.937-16602-1792.833-16632.789-1771.391Zm-62.357-3.776c28.721-23.424,65.65-39.085,91.584-65.313-26.291-7.81-41.275,25.386-58.346,38.319a7.018,7.018,0,0,0-4.256-1.187C-16678.439-1803.349-16703.189-1784.029-16695.146-1775.168Zm524.125-164.98c-69.153,49.947-150.082,89.222-199.649,157.234,67.717-51.408,135.076-103,203.851-153.437,3.872-.245,3.518-3.961-2.041-3.961A15.38,15.38,0,0,0-16171.021-1940.148Zm-332.785,145.732c21.037-.989,37.561-6.29,41.611-22.982C-16478.846-1812.312-16495.855-1807.5-16503.807-1794.416Zm-257.92-3.839c37.9-20.174,75.611-40.222,103.932-68.984C-16697.975-1851.856-16741.889-1819.612-16761.727-1798.255Zm378.6-30.64c22.347-16.419,46.149-31.592,62.357-53.664C-16350.308-1875.3-16378.544-1846.539-16383.124-1828.9Zm-124.843-3.823c15.342.042,28.678-1.688,29.121-15.489-3.658-2.661-9-4.135-14.193-4.135C-16503.334-1852.341-16513.061-1846.547-16507.967-1832.718Zm95.742-19.139c1.18-7.915,11.25-7.578,12.5-15.383h-20.916C-16421.658-1858.483-16419.607-1852.934-16412.225-1851.856Zm8.295-30.7c69.258-14.289,121.7-43.809,178.906-69.153C-16292.319-1935.635-16353.263-1913.793-16403.93-1882.56Zm203.809-3.928c7.658-15.973,29.247-19.033,37.478-34.522C-16178.937-1915.545-16206.326-1900.035-16200.121-1886.488Zm-91.5-61.449c-43.278,15.4-85.146,24.077-116.506,57.736,70.083-42.921,164.812-63.095,245.487-96.08C-16213.458-1984.172-16255.516-1960.642-16291.625-1947.936Zm25.05,49.93c21.525-23.572,63.982-27.836,83.126-53.707C-16216.751-1941.478-16259.844-1919.89-16266.575-1898.006Zm-203.956-11.4c61.537-20.153,108.849-53.18,170.592-72.976C-16375.021-1974.905-16423.6-1942.977-16470.531-1909.4Zm-54.043-19.311c19.963,1.9,27.283-8.037,37.434-15.194-.729-.02-1.445-.03-2.154-.03C-16506.42-1943.937-16517.5-1938.113-16524.574-1928.714Zm-108.215-3.818c83.375-13.906,134.594-57.441,228.859-61.322a226.42,226.42,0,0,0-29.7-1.9C-16508.477-1995.754-16585.766-1961.77-16632.789-1932.532Zm-33.215-3.818c42.793-8.693,86.775-35.284,133.01-53.749,47.715-18.865,98.865-30.64,137.336-57.5C-16497.732-2021.459-16593.266-1989.4-16666-1936.351Zm41.531-95.911c-26.127,37.33-73.4,55.226-95.639,95.911,57.588-22.835,67.592-69.768,116.549-95.911-20.91-5.065-33.912-17.454-41.717-34.547,8.248-13,7.131-34.437,20.807-42.247-4.033,34.547,6.879,75.443,37.477,65.335-28.09-9.982-29.121-48.411-16.566-76.836,12.2,25.9,11.059,64,45.686,69.069-7.826-18.76-53.26-54.191-16.666-76.706,0,28.257,4.7,51.955,33.338,53.686-4.049-21.778-17.428-48.01,8.211-57.546-3.441,3.225-11.309,29.983,4.348,26.885,46.807-62.253,166.585-88.843,207.88-168.908-6.146-2.13-11.16.6-15.45,3.33-5.414,3.448-9.675,6.9-13.606.573,22.578-3.566,25.575-25,41.573-34.479.484,6.416-13.464,24.308,4.2,22.94,22.624-9.792,26.338-37.119,33.28-61.369-20.659-26.228-66.2-27.916-95.681-7.679-4.008,15.446-2.744,35.852-24.922,34.543-12.744-28.047,35.493-64.678,4.07-88.312,5.911,46.234-22.469,44.356-16.625,84.515,9.094-.741,13.295,3.208,12.555,11.481-81.244,60.691-140.289,141.788-245.568,180.343-1.713,22.62-22.6,27.79-24.965,49.888-2.955,14.285,7.109,16.457,4.113,30.7-51.977,1.305-71.982,59.8-103.932,92.026,45.691-10.187,66.7-84.183,111.42-84.178C-16642.5-2039.754-16633.977-2037.5-16624.473-2032.262Zm-62.338,92.114c21.947-15.6,49.189-26.253,66.555-46.133q-1.878-.174-3.76-.172C-16649.715-1986.452-16675.725-1962.766-16686.811-1940.148Zm345.26-7.788c32.56-3.124,56.6-14.415,74.976-30.577C-16293.057-1969.483-16329.354-1969.925-16341.551-1947.936Zm-133.158-15.215c31.635.989,57.863-2.934,74.98-15.362a76.272,76.272,0,0,0-16.852-1.791C-16437.828-1980.3-16460.092-1972.667-16474.709-1963.151Zm345.656-26.851c6.033,3.515,11.557,7.031,16.339-.1-.8-7.258-24.2-12.9-29.146-3.755a10.012,10.012,0,0,1,1.938-.187C-16136.157-1994.041-16132.519-1992.023-16129.053-1990Zm16.339-23.037c8.693-7.7.084-16.352-8.336-19.223C-16121.686-2022.769-16121.77-2013.65-16112.714-2013.039Zm-87.407-7.7c23.146,3.376,29.1-8.971,37.478-19.185C-16178.747-2036.906-16192.312-2031.525-16200.121-2020.739Zm54.106,0h20.915v-15.4C-16137.469-2035.765-16148.629-2034.754-16146.015-2020.739Zm-224.656-30.75c22.136,2.619,27.853,20.452,58.2,15.345-3.538-14.322-18.355-21.734-34.021-21.732A47.977,47.977,0,0,0-16370.671-2051.489Zm99.9-11.5c-.552,17.113,25.386,9.746,29.078,23.062,1.743-14.379-10.513-25.117-21.464-25.116A14.513,14.513,0,0,0-16270.772-2062.986Zm-278.831,23.062c55.27-19.5,120.141-29.857,170.617-53.707-59.238-2.214-106.1,27.352-145.588,30.645,12.469-23,43.766-28.657,58.244-49.888C-16510.775-2103.865-16530.588-2072.231-16549.6-2039.924Zm228.837-15.383c13.8,4.054,34.253,22.01,49.994,11.586-12.438-1.624-24.5-15.66-38-15.658A20.384,20.384,0,0,0-16320.767-2055.307Zm128.981-15.341c-.084,15.447,9.561,21.968,20.764,26.927,12.963-8.576,4.031-27.279-15.926-27.278A34.352,34.352,0,0,0-16191.785-2070.649Zm-12.475,26.927c2.514-13.863-12.7-11.375-12.491-23.088-2.711.825-6.786.4-10.861-.034-6.875-.72-13.75-1.444-14.082,3.856.188,0,.371,0,.556,0C-16221.84-2062.99-16221.815-2045.394-16204.26-2043.722Zm62.4-11.586c10.617-.379,21.378-.758,20.81-11.5h-16.629C-16137.469-2061.555-16139.62-2058.347-16141.859-2055.307Zm-228.812-11.5c22.936.72,36.441-7.3,41.569-23.041C-16351.343-2089.85-16364.765-2081.876-16370.671-2066.809Zm91.479-3.84c10.634-.379,19.879-2.067,25.049-7.658-4.742-1.295-11.028-3.37-16.129-3.369C-16275.818-2081.676-16279.963-2079.223-16279.192-2070.649Zm-54.044,0h16.566c1.9-7.3,9.052-9.666,8.42-19.2a35.509,35.509,0,0,0-5.405-.447C-16327.291-2090.3-16330.223-2080.4-16333.236-2070.649Zm33.3-3.86c8.314,6.753,21.146-6.142,24.944-15.341C-16288.1-2089.24-16299.7-2087.11-16299.939-2074.509Zm99.818-34.547c6.143,13.653,16.861,22.94,37.478,23.066,2.017-19.724-13.933-23.108-33.508-23.108C-16197.459-2109.1-16198.785-2109.083-16200.121-2109.056Zm91.626,19.206c-11.755-9.75-27.748-15.32-45.855-19.206C-16146.268-2098.291-16126.3-2078.732-16108.5-2089.85Zm-149.871-11.523c9.729,6.711,37.439,16.608,50.057,7.742-5.284-5.836-20.143-12.365-33.647-12.365C-16248.032-2106-16253.834-2104.674-16258.366-2101.373Zm-79.071-11.5c45.665-10.4,89.158-22.814,124.889-42.163C-16261.658-2147.885-16308-2138.24-16337.437-2112.875Zm129.128-7.683c17.771,1.2,33.406.32,33.2-15.32a50.738,50.738,0,0,0-7.518-.6C-16196.981-2136.478-16203.3-2128.979-16208.31-2120.558Zm45.666,0c15.72,1.667,18.928-8.163,24.965-15.32-4.656-.711-6.955.733-9.225,2.181-2.647,1.688-5.258,3.376-11.539,1.642C-16158.337-2126.78-16160.45-2123.551-16162.644-2120.558Zm-91.5,0c17.009.467,32.6-.526,33.259-15.32q-.655-.025-1.282-.024C-16238.433-2135.9-16241.593-2123.808-16254.144-2120.558Zm124.843,0c12.638.211,21.1-3.334,24.881-11.5C-16116.81-2131.95-16129.743-2132.438-16129.3-2120.558Zm-241.37-3.839c29.036.93,68.433-17.661,95.676-30.64C-16313.188-2150.714-16351.638-2146.449-16370.671-2124.4Zm-287.124-95.912c-31.209,31.486-82.617,52.124-83.123,95.912,34.438-46.213,81.477-80.781,116.445-126.615a31.139,31.139,0,0,0-4.141-.292C-16647.623-2251.3-16647.359-2230.761-16657.795-2220.309Zm245.57,69.069c63.159-13.358,131.976-21.484,191.34-38.281a220.391,220.391,0,0,0-29.5-1.953C-16310.679-2191.473-16365.486-2167.927-16412.225-2151.24Zm232.973-15.278c18.128.147,38.912,2.6,41.573-11.565a25.39,25.39,0,0,0-10.925-2.511C-16160.219-2180.593-16170.438-2172.481-16179.252-2166.518Zm-108.234-42.184c40.832-2.088,75.253-10,104.037-23.151-1.482-.032-2.942-.047-4.39-.047C-16229.5-2231.9-16257.017-2218.979-16287.486-2208.7Zm191.381-15.552c-5.764-6.121-19.753-4.686-16.608-19.143-6.34-1.288-9.384.341-12.406,1.97-3.065,1.65-6.113,3.3-12.559,1.916C-16139.388-2222.334-16105.056-2218.684-16096.105-2224.254Zm-166.458-15.257c34-12.137,86.478-7.3,104.121-34.568C-16201.072-2269.793-16232.449-2255.235-16262.563-2239.51Zm124.885-7.683c23.087,2.109,32.434-8.5,37.54-22.982C-16119.529-2268.7-16129.849-2259.137-16137.679-2247.194Zm-120.687-19.181c19.563-10.108,52.864-7.494,58.245-30.682C-16221.289-2288.468-16247.854-2284.755-16258.366-2266.374Zm103.094-30.64c10.521.488,21.059.972,21.728-7.641a88.516,88.516,0,0,1-11.51-.046c-10.537-.48-21.084-.956-21.766,7.645,1.388-.131,2.865-.18,4.4-.18C-16160.122-2297.237-16157.7-2297.126-16155.272-2297.014Zm-78.065-7.641c23.172-10.677,25.533-40.559,45.645-53.728-18,.084-38.429,2.257-45.645-7.742C-16228.463-2343.463-16241.463-2317.4-16233.338-2304.656Zm54.086-34.61c-4.771,6.1-21.716,20.536-8.441,30.729-3.073-8.605,3.574-8.176,10.2-7.75a37.714,37.714,0,0,0,6.476.067c-2.2-7.251,5.259-23.5-4.867-23.5A14.53,14.53,0,0,0-16179.252-2339.266Zm51.766-10.235c-22.726,2.661-36.782,11.228-35.157,33.28,18.675,2.278,27.621-27.158,35.157-33.28,5.8-2,11.207-3.86,16.377-5.528A147.835,147.835,0,0,0-16127.486-2349.5Zm-600.918,14.036c25.406.842,42.289,9.514,70.609,7.7-.189-6.69.992-11.923,4.238-15.32-9.451-6.711-23.209-9.283-41.59-7.679,28.385-36.951,85.063-59.723,83.164-103.531-2.885-5.646-7.7.029-12.5,5.7-4.791,5.658-9.582,11.316-12.457,5.755,8.861-30.072,29.246-49.8,49.947-69.09-5.508-3.882-15.363-3.671-20.7-7.641C-16652.037-2461.89-16681.094-2390.27-16728.4-2335.464Zm191.381,0c31.738-2.85,62.82-28.826,87.318-49.8,29.4-25.092,51.871-64.531,70.719-95.891-11.039-20.637-12.937-49.484-45.754-49.926,35.283,124.165-98.947,112.751-170.613,149.635,19.965,5.911,27.432,23.256,41.7,34.526,70.59-27.963,163.293-89.222,137.334-168.862C-16379.433-2436.8-16484.059-2367.818-16537.023-2335.464Zm-121.387-15.5c4.555,2.488,9.119,4.976,17.371,4.037,9.855-7.641,34.059-22.052,24.859-34.526-22.367,7.557-62.021-1.073-62.357,26.885a33.293,33.293,0,0,1,6.225-.633C-16666.168-2355.2-16662.289-2353.081-16658.41-2350.961Zm-45.072-87.972c-9.346,15.745-10.676,41.931,0,57.483,9.557-16.625,24.2-28.91,24.945-53.66-8.049,0-11.135-4.56-19.029-4.56A26.265,26.265,0,0,0-16703.482-2438.933Zm299.553,53.665c-.637-11.034,11.564-29.882,0-38.471C-16408.994-2417.828-16412.076-2390.627-16403.93-2385.268Zm58.156-15.383c18.869-9.435,50.456-7.132,49.973-34.458C-16320.45-2431-16335.5-2418.1-16345.773-2400.651Zm-278.7-3.882c24.539-1.562,39.4-32.711,29.119-53.538C-16603.668-2439.206-16613.859-2421.562-16624.473-2404.533Zm241.349-11.459c3.755-10.828,18.359-38.7,0-46.044C-16385.086-2449.588-16398.844-2420.825-16383.124-2415.992Zm33.3-26.843c15.7-13.653,44.229-15.425,54.022-34.526-6.492-4.5-12.011-6.375-16.811-6.374C-16330.979-2483.731-16338.765-2456.22-16349.823-2442.835Zm-129.022-3.8c13.736,2.172,30.219-12.9,20.809-19.143C-16461.775-2456.509-16481.293-2461.721-16478.846-2446.633Zm-87.316,0c10.045.3,20.1.594,24.957-3.848-6.012-12.407-20.469-17.029-33.338-22.978,2,11.986-7.494,13.421-4.139,26.822,1.635-.1,3.342-.143,5.092-.143C-16571.168-2446.775-16568.664-2446.7-16566.162-2446.628Zm212.158-26.826c1.8-7.409,8.95-9.771,8.23-19.185a9.807,9.807,0,0,0-3.47-.673C-16359.016-2493.311-16362.588-2476.209-16354-2473.454Zm-199.65-23.13c32.561,19.522,76.139,31.844,108.088,3.945-1.941-17.072,5.717-19.138,0-30.724-29.967,28.636-79.834,4.812-112.311-7.721C-16554.395-2521.507-16552.408-2510.616-16553.654-2496.584Zm-20.889-145.863c-8.678,67.233,33.574,124.337,83.311,122.881,52.188-1.478,104.289-77.594,79.008-134.378-7.437-1.541-11.365.059-15.289,1.659a23.584,23.584,0,0,1-9.717,2.286c-15.762,15.657,41.488,12.365,4.244,15.657-4.1,0-15.852-2-20.006-2,3.629-6.774,17.238-10.213,3.287-13.653.572,10.8-18.209,17.156-20.826,3.819,12.406-9.01,24.123-18.76,49.887-15.4v-15.362c-26.82-1.625-37.881,11.249-54.064,19.265-9.959,32.16,19.67,27.815,20.764,49.867-17.512,13.59-54.105,14.011-64.934-4.286,2.754.632,5.207-3.76,7.455-8.146,2.791-5.435,5.268-10.87,7.617-6.77.9,7.279-4.582,8.5-4.16,15.278,7.342,4.05,36.7,18.676,45.771,0-21.422-5.784-14.854-37.334-20.869-57.42,16.287-8.782,58.393-32.333,33.359-53.812-9.852,7.784-20.338,34.774-33.359,26.885-.656-11.081,24.1-18.465,12.533-26.885-19.623,11.266-29.9,31.188-45.771,46.023,21.441,5.423,24.334,26.885,16.672,42.289-4.055-19.033-43.094-55.184-58.246-26.927,19.1,1.541,37,4.433,45.771,15.4-4.766,7.258-27.77,15.4-38.256,10.129,1.73-5.97,17.955-1.878,13.338-13.948-.5-.009-.992-.013-1.482-.013C-16553.346-2650.012-16563.7-2646.062-16574.543-2642.447Zm-24.965-15.236c-5.238-15.657-.469-40.454-16.672-46.023C-16621.943-2688.807-16625.025-2655.19-16599.508-2657.683Zm149.8-26.927c9.918,2.408,18.975,5.595,33.385,3.865,1.52-20.747-3.986-34.779-20.91-38.344C-16434.17-2700.982-16443.18-2693.893-16449.705-2684.61Zm-49.926-38.361c-27.605,4.029-33.617,27.9-70.693,23.1C-16558.4-2671.272-16504.8-2698.515-16499.631-2722.971Zm-95.723-3.823c33.828,1.814,48.727-13.8,62.359-30.745C-16556.734-2750.049-16576.656-2739.095-16595.354-2726.793Zm95.592,170.125c28.746,13.434,24.895-7.523,33.271-13.893-2.32-3.263-8.184-2.707-14.129-2.151-6.281.585-12.654,1.17-15.051-2.732-8.352-3.326,1.566-3.141,13.932-2.951,10.664.16,23.143.32,27.289-1.768,3.279,17.068-15.271,33.8-30.2,33.794C-16490.99-2546.372-16496.678-2549.386-16499.762-2556.669Zm-20.322-22.25c16.23-2.526,7.133,8.121,16.23,22.6C-16512.951-2557.62-16525.379-2573.029-16520.084-2578.918ZM-16125.1-2746c-40.963-4.77-68.879-29.882-104.058-38.3-13.056-3.09-27.154-2.884-41.329-2.682-11.3.164-22.658.328-33.566-1.179-28.531-3.949-52.966-12.516-76.92-21.841h31.339c20.722,9.624,46.364,12.958,66.37,2.656-.657-.884-1.373-1.772-2.155-2.656h22.582c14.326,10.824,36.188,14.709,62.716,14.179,5.654,11.459,14.2,20.2,25.007,26.843,17.7,1.541,46.8,4.244,79.451,6.121v18.3q-1.484.015-2.953.015A223.928,223.928,0,0,1-16125.1-2746Zm-13.909-55.605c-13.442-.741-26-4.075-38.046-8.4h34.29c15,6.205,30.514,11.965,47.1,14.92v11.9C-16117.273-2784.929-16133.65-2790.078-16139.009-2801.6Z" transform="translate(34595.916 5620.5)"/>
</svg>
