<svg xmlns="http://www.w3.org/2000/svg" viewBox="2219 483 124 30">
  <defs>
    <style>
      .cls-1 {
        fill: #0073b1;
      }

      .cls-2 {
        fill: #08bb08;
      }

      .cls-3 {
        fill: #007aff;
      }
    </style>
  </defs>
  <g id="con2" transform="translate(1922 -113)">
    <path id="Subtraction_26" data-name="Subtraction 26" class="cls-1" d="M-1975-1240a15.017,15.017,0,0,1-15-15,15.017,15.017,0,0,1,15-15,15.017,15.017,0,0,1,15,15A15.016,15.016,0,0,1-1975-1240Zm3.184-15.81a1.44,1.44,0,0,1,.889.239,1.442,1.442,0,0,1,.459.619,2.777,2.777,0,0,1,.18.829c.02.3.03.589.03.869v4.753h3v-5.352a11.176,11.176,0,0,0-.14-1.817,3.955,3.955,0,0,0-.529-1.458,2.679,2.679,0,0,0-1.088-.968,4.147,4.147,0,0,0-1.838-.349,3.446,3.446,0,0,0-1,.14,3.551,3.551,0,0,0-.819.36,2.914,2.914,0,0,0-.619.5,2.445,2.445,0,0,0-.4.56l-.04-1.319h-2.875v9.706h3v-4.833a6.71,6.71,0,0,1,.06-.918,2.3,2.3,0,0,1,.249-.789,1.435,1.435,0,0,1,.549-.559A1.857,1.857,0,0,1-1971.815-1255.811Zm-9.945-2.4v9.706h3v-9.706Zm1.5-4.792a1.678,1.678,0,0,0-1.228.509,1.678,1.678,0,0,0-.509,1.228,1.679,1.679,0,0,0,.509,1.229,1.681,1.681,0,0,0,1.228.509,1.682,1.682,0,0,0,1.229-.509,1.682,1.682,0,0,0,.509-1.229,1.681,1.681,0,0,0-.509-1.228A1.679,1.679,0,0,0-1980.263-1263Z" transform="translate(2381 1866)"/>
    <path id="Subtraction_23" data-name="Subtraction 23" class="cls-2" d="M-1975-1240a15.017,15.017,0,0,1-15-15,15.017,15.017,0,0,1,15-15,15.017,15.017,0,0,1,15,15A15.016,15.016,0,0,1-1975-1240Zm5.773-8.857h0c.439.27.978.6,1.055.64a.243.243,0,0,0,.112.033c.109-.067.122-.123.109-.2l-.036-.219-.128-.784a4.085,4.085,0,0,0,2-3.4c0-2.333-2.214-4.231-4.937-4.231s-4.937,1.9-4.937,4.231,2.214,4.231,4.937,4.231A5.651,5.651,0,0,0-1969.227-1248.857Zm-7.636-13.143c-3.384,0-6.137,2.36-6.137,5.26a5.08,5.08,0,0,0,2.485,4.227l-.1.635-.1.611a.249.249,0,0,0,.032.207.127.127,0,0,0,.1.044.306.306,0,0,0,.14-.041c.1-.052.767-.461,1.312-.8a7.022,7.022,0,0,0,2.269.371q.362,0,.715-.035a3.963,3.963,0,0,1-.216-1.289c0-2.511,2.384-4.554,5.314-4.554.094,0,.189,0,.283.006C-1971.128-1260-1973.747-1262-1976.863-1262Zm7.682,8.583a.566.566,0,0,1-.566-.565.567.567,0,0,1,.566-.566.567.567,0,0,1,.566.566A.566.566,0,0,1-1969.181-1253.417Zm-3.772,0a.566.566,0,0,1-.565-.565.566.566,0,0,1,.565-.566.567.567,0,0,1,.566.566A.566.566,0,0,1-1972.953-1253.417Zm-1.623-4.2a.756.756,0,0,1-.756-.755.757.757,0,0,1,.756-.756.757.757,0,0,1,.756.756A.756.756,0,0,1-1974.576-1257.617Zm-4.161,0a.756.756,0,0,1-.756-.755.757.757,0,0,1,.756-.756.757.757,0,0,1,.756.756A.756.756,0,0,1-1978.737-1257.617Z" transform="translate(2334 1866)"/>
    <path id="Subtraction_25" data-name="Subtraction 25" class="cls-3" d="M-1975-1240a15.017,15.017,0,0,1-15-15,15.017,15.017,0,0,1,15-15,15.017,15.017,0,0,1,15,15A15.016,15.016,0,0,1-1975-1240Zm-8.061-18.875v8.441a.5.5,0,0,0,.5.5H-1968a.5.5,0,0,0,.5-.5v-8.46l-7.776,6.788-7.781-6.769Zm.81-1.125,6.97,6.064,6.947-6.064Z" transform="translate(2287 1866)"/>
  </g>
</svg>
