<svg xmlns="http://www.w3.org/2000/svg" xmlns:xlink="http://www.w3.org/1999/xlink" viewBox="3209 66 344.541 63.375">
  <defs>
    <style>
      .cls-1 {
        fill: none;
      }

      .cls-2 {
        clip-path: url(#clip-path);
      }

      .cls-3 {
        fill: #0a5ed7;
      }
    </style>
    <clipPath id="clip-path">
      <path id="Path_126" data-name="Path 126" class="cls-1" d="M.048,0H344.589V-63.375H.048Z" transform="translate(0 63.375)"/>
    </clipPath>
  </defs>
  <g id="Group_55" data-name="Group 55" transform="translate(3208.952 66)">
    <g id="Group_54" data-name="Group 54" class="cls-2">
      <path id="Path_125" data-name="Path 125" class="cls-3" d="M117.112-62.308h-18.5v24.541H79.387V-62.308H60.768V-.772H79.387V-24.943H98.615V-.772h18.5Zm64.5,49.2v-49.2h-18.5V-.772h33.466l2.8-12.332Zm-32.249-49.2h-18.5V-.772h18.5Zm75.207,0h-18.5V-.772h18.5Zm91.392,15.785c0-3.453,3.286-4.933,8.64-4.933a44.411,44.411,0,0,1,16.429,3.083l-1.46-13.442a74.879,74.879,0,0,0-17.037-1.726c-14.968,0-25.191,5.919-25.191,18.5,0,21.581,28.963,17.265,28.963,27.254,0,3.946-2.8,5.919-9.614,5.919-6.085,0-15.455-1.973-21.053-4.809l1.947,14.058A60.1,60.1,0,0,0,316.934.585c15.455,0,28.233-5.179,28.233-20.594C345.167-40.6,315.961-36.781,315.961-46.523ZM263.632-15.447c17.281,0,28.233-9,28.233-24.664,0-17.265-11.683-23.431-30.789-23.431a213.887,213.887,0,0,0-22.513,1.233V-.772h18.5V-15.447Zm9.857-24.417c0,8.016-3.772,13.319-13.386,13.319H257.06v-25.4H260.1C269.23-51.95,273.489-47.633,273.489-39.864ZM25.233-15.447c17.281,0,28.233-9,28.233-24.664,0-17.265-11.683-23.431-30.667-23.431A214.429,214.429,0,0,0,.164-62.308V-.772h18.5V-15.447Zm9.979-24.417c0,8.016-3.894,13.319-13.508,13.319H18.662v-25.4H21.7C30.831-51.95,35.212-47.633,35.212-39.864Zm0,0" transform="translate(0 63.375)"/>
    </g>
  </g>
</svg>
